<?xml version="1.0" encoding="UTF-8" standalone="no"?>
<svg
   xmlns:dc="http://purl.org/dc/elements/1.1/"
   xmlns:cc="http://creativecommons.org/ns#"
   xmlns:rdf="http://www.w3.org/1999/02/22-rdf-syntax-ns#"
   xmlns:svg="http://www.w3.org/2000/svg"
   xmlns="http://www.w3.org/2000/svg"
   xmlns:xlink="http://www.w3.org/1999/xlink"
   xmlns:sodipodi="http://sodipodi.sourceforge.net/DTD/sodipodi-0.dtd"
   xmlns:inkscape="http://www.inkscape.org/namespaces/inkscape"
   version="1.0"
   width="20"
   height="19.999763"
   id="svg2"
   inkscape:version="0.91 r13725"
   sodipodi:docname="Fedora_logo.svg">
  <metadata
     id="metadata12">
    <rdf:RDF>
      <cc:Work
         rdf:about="">
        <dc:format>image/svg+xml</dc:format>
        <dc:type
           rdf:resource="http://purl.org/dc/dcmitype/StillImage" />
        <dc:title></dc:title>
      </cc:Work>
    </rdf:RDF>
  </metadata>
  <sodipodi:namedview
     pagecolor="#ffffff"
     bordercolor="#666666"
     borderopacity="1"
     objecttolerance="10"
     gridtolerance="10"
     guidetolerance="10"
     inkscape:pageopacity="0"
     inkscape:pageshadow="2"
     inkscape:window-width="1280"
     inkscape:window-height="1002"
     id="namedview10"
     showgrid="false"
     inkscape:zoom="14.142322"
     inkscape:cx="24.977555"
     inkscape:cy="10.748851"
     inkscape:window-x="0"
     inkscape:window-y="22"
     inkscape:window-maximized="1"
     inkscape:current-layer="svg2"
     fit-margin-top="0"
     fit-margin-left="0"
     fit-margin-right="0"
     fit-margin-bottom="0" />
  <defs
     id="defs5" />
  <g
     id="g3367"
     transform="scale(0.07511695,0.07511695)">
    <path
       inkscape:connector-curvature="0"
       style="fill:#294172"
       id="voice"
       d="M 266.2515,133.1303 C 266.2515,59.60545 206.64797,0 133.12367,0 59.63243,0 0.05214,59.5554 0,133.03642 l 0,103.02105 c 0.03955,16.68433 13.5712,30.19087 30.26602,30.19087 l 102.91165,0 C 206.67742,266.21954 266.2515,206.63559 266.2515,133.1303" />
    <path
       inkscape:connector-curvature="0"
       style="fill:none;stroke:#3c6eb4;stroke-width:29.20999908"
       id="in"
       d="m 76.752039,141.72173 c 0,0 47.844751,0 47.844751,0 0,0 0,47.84478 0,47.84478 0,26.41029 -21.43445,47.84473 -47.844751,47.84473 -26.41031,0 -47.844759,-21.43444 -47.844759,-47.84473 0,-26.41031 21.434449,-47.84478 47.844759,-47.84478 z" />
    <use
       height="100%"
       width="100%"
       y="0"
       x="0"
       xlink:href="#in"
       id="finity"
       transform="matrix(-1,0,0,-1,248.96301,283.53654)" />
    <path
       inkscape:connector-curvature="0"
       style="fill:#ffffff"
       id="free"
       d="m 139.23315,127.1534 0,62.34618 c 0,34.50402 -27.97537,62.48 -62.48061,62.48 -5.23494,0 -8.95649,-0.59101 -13.80235,-1.8577 -7.06595,-1.84912 -12.84046,-7.64253 -12.84286,-14.38111 0,-8.14513 5.91236,-14.0699 14.75029,-14.0699 4.20637,0 5.73267,0.80765 11.89492,0.80765 18.19161,0 32.94764,-14.73519 32.97955,-32.92679 l 0,-28.65657 c 0,-2.56775 -2.08663,-4.64825 -4.65867,-4.64825 l -21.66521,-0.004 c -8.07212,0 -14.59401,-6.43843 -14.59401,-14.53266 -0.0043,-8.14456 6.5888,-14.55657 14.74808,-14.55657" />
    <use
       height="100%"
       width="100%"
       y="0"
       x="0"
       xlink:href="#free"
       id="dom"
       transform="matrix(-1,0,0,-1,248.96302,283.53655)" />
    <path
       inkscape:connector-curvature="0"
       style="fill:#3c6eb4"
       id="TM"
       d="m 243.28031,243.20842 c 0,0 4e-5,-5.53139 4e-5,-5.53139 l -2.52853,5.79776 c 0,0 -2.46141,-5.79776 -2.46141,-5.79776 l 4.7e-4,5.53139 -1.4183,0 0,-8.73492 1.48704,0 c 0,0 2.43397,5.58051 2.43397,5.58051 l 2.39711,-5.58051 1.50544,0 0,8.73492 -1.41583,0 z m -10.33302,-7.27184 0,7.27184 -1.48213,0 0,-7.27184 -2.48488,0 0,-1.46308 6.44946,0 0,1.46308" />
  </g>
</svg>
