<?xml version="1.0" encoding="UTF-8" standalone="no"?>
<svg
   xmlns:dc="http://purl.org/dc/elements/1.1/"
   xmlns:cc="http://creativecommons.org/ns#"
   xmlns:rdf="http://www.w3.org/1999/02/22-rdf-syntax-ns#"
   xmlns:svg="http://www.w3.org/2000/svg"
   xmlns="http://www.w3.org/2000/svg"
   xmlns:xlink="http://www.w3.org/1999/xlink"
   xmlns:sodipodi="http://sodipodi.sourceforge.net/DTD/sodipodi-0.dtd"
   xmlns:inkscape="http://www.inkscape.org/namespaces/inkscape"
   version="1.0"
   width="20"
   height="19.999763"
   id="svg2"
   inkscape:version="0.91 r13725"
   sodipodi:docname="Fedora_logo_1.svg">
  <metadata
     id="metadata12">
    <rdf:RDF>
      <cc:Work
         rdf:about="">
        <dc:format>image/svg+xml</dc:format>
        <dc:type
           rdf:resource="http://purl.org/dc/dcmitype/StillImage" />
        <dc:title></dc:title>
      </cc:Work>
    </rdf:RDF>
  </metadata>
  <sodipodi:namedview
     pagecolor="#ffffff"
     bordercolor="#666666"
     borderopacity="1"
     objecttolerance="10"
     gridtolerance="10"
     guidetolerance="10"
     inkscape:pageopacity="0"
     inkscape:pageshadow="2"
     inkscape:window-width="1280"
     inkscape:window-height="1002"
     id="namedview10"
     showgrid="false"
     inkscape:zoom="14.142322"
     inkscape:cx="13.699351"
     inkscape:cy="10.748851"
     inkscape:window-x="0"
     inkscape:window-y="22"
     inkscape:window-maximized="1"
     inkscape:current-layer="svg2"
     fit-margin-top="0"
     fit-margin-left="0"
     fit-margin-right="0"
     fit-margin-bottom="0" />
  <defs
     id="defs5" />
  <path
     d="M 20.000001,10.000342 C 20.000001,4.4773796 15.522765,0 9.9998441,0 4.4794063,0 0.0039166,4.47362 0,9.9932901 l 0,7.7386269 c 0.00297088,1.253276 1.0194272,2.267846 2.2734911,2.267846 l 7.7304089,0 c 5.521077,-0.0022 9.996101,-4.477928 9.996101,-9.999421"
     id="voice"
     style="fill:#000000"
     inkscape:connector-curvature="0" />
  <path
     d="m 5.7653791,10.645704 c 0,0 3.5939517,0 3.5939517,0 0,0 0,3.593954 0,3.593954 0,1.98386 -1.6100905,3.59395 -3.5939517,3.59395 -1.983862,0 -3.5939524,-1.61009 -3.5939524,-3.59395 0,-1.983862 1.6100904,-3.593954 3.5939524,-3.593954 z"
     id="in"
     style="fill:none;stroke:#737373;stroke-width:2.19416595;stroke-opacity:1"
     inkscape:connector-curvature="0" />
  <use
     transform="matrix(-1,0,0,-1,18.701342,21.2984)"
     id="finity"
     xlink:href="#in"
     x="0"
     y="0"
     width="100%"
     height="100%" />
  <path
     d="m 10.45877,9.5513756 0,4.6832544 c 0,2.591837 -2.1014249,4.693308 -4.6933533,4.693308 -0.3932327,0 -0.6727842,-0.0444 -1.0367904,-0.139545 -0.5307726,-0.138901 -0.9645362,-0.574084 -0.9647165,-1.080265 0,-0.611838 0.4441185,-1.056888 1.1079968,-1.056888 0.3159697,0 0.4306207,0.06067 0.8935101,0.06067 1.3664983,0 2.4749262,-1.106863 2.4773232,-2.47336 l 0,-2.152594 c 0,-0.192882 -0.1567413,-0.349163 -0.3499451,-0.349163 l -1.6274245,-3e-4 c -0.606353,0 -1.0962575,-0.483635 -1.0962575,-1.091649 -3.23e-4,-0.611795 0.4949306,-1.0934454 1.1078308,-1.0934454"
     id="free"
     style="fill:#ffffff"
     inkscape:connector-curvature="0" />
  <use
     transform="matrix(-1,0,0,-1,18.701343,21.298401)"
     id="dom"
     xlink:href="#free"
     x="0"
     y="0"
     width="100%"
     height="100%" />
  <path
     d="m 18.274475,18.269075 c 0,0 3e-6,-0.415501 3e-6,-0.415501 l -0.189936,0.43551 c 0,0 -0.184893,-0.43551 -0.184893,-0.43551 l 3.5e-5,0.415501 -0.106538,0 0,-0.656141 0.111702,0 c 0,0 0.182832,0.419191 0.182832,0.419191 l 0.180064,-0.419191 0.113084,0 0,0.656141 -0.106353,0 z m -0.776185,-0.546239 0,0.546239 -0.111333,0 0,-0.546239 -0.186657,0 0,-0.109902 0.484464,0 0,0.109902"
     id="TM"
     style="fill:#3c6eb4"
     inkscape:connector-curvature="0" />
</svg>
